<?xml version="1.0" standalone="no"?>
<!DOCTYPE svg PUBLIC "-//W3C//DTD SVG 20010904//EN"
 "http://www.w3.org/TR/2001/REC-SVG-20010904/DTD/svg10.dtd">
<svg version="1.0" xmlns="http://www.w3.org/2000/svg"
 width="1280.000000pt" height="1280.000000pt" viewBox="0 0 1280.000000 1280.000000"
 preserveAspectRatio="xMidYMid meet">

<g transform="translate(0.000000,1280.000000) scale(0.100000,-0.100000)"
fill="#ffca2b" stroke="none">
<path d="M2485 12764 c-162 -19 -229 -30 -347 -55 -459 -99 -903 -332 -1253
-657 -394 -367 -677 -858 -794 -1377 -35 -160 -48 -250 -61 -430 -14 -195 -13
-7499 0 -7695 14 -198 35 -327 79 -505 92 -361 263 -708 497 -1005 95 -120
350 -371 471 -463 416 -316 897 -503 1408 -547 93 -8 1223 -10 4000 -8 3590 3
3877 5 3973 21 306 50 553 127 807 251 784 383 1329 1111 1474 1966 43 253 43
214 39 4230 l-4 3845 -21 125 c-74 436 -203 772 -423 1102 -114 171 -200 277
-330 408 -421 423 -900 667 -1525 777 -94 16 -331 18 -4030 19 -2161 1 -3943
0 -3960 -2z m1980 -2814 l0 -105 -327 -3 -328 -2 0 -1615 0 -1615 1580 0 1580
0 0 1615 0 1615 -324 0 c-250 0 -325 3 -328 13 -2 6 -3 53 -2 102 l3 90 1681
3 1680 2 0 -112 0 -111 -323 6 -324 5 -6 -501 c-4 -276 -7 -1781 -7 -3344 l0
-2843 325 0 325 0 0 -105 0 -105 -1682 2 -1683 3 0 105 0 105 330 5 330 5 3
1613 2 1612 -1585 0 -1585 0 0 -1615 0 -1615 328 -2 327 -3 3 -102 3 -103
-1686 0 -1685 0 0 112 0 111 323 -6 324 -7 6 752 c4 413 7 1918 7 3345 l0
2593 -325 0 -325 0 0 105 0 105 1683 -2 1682 -3 0 -105z m6705 -5735 c223 -67
418 -268 475 -490 21 -80 21 -261 0 -340 -62 -235 -257 -431 -490 -490 -75
-19 -260 -19 -340 0 -122 29 -229 91 -327 192 -72 73 -121 156 -155 258 -23
70 -27 96 -27 210 0 114 4 140 27 211 66 198 243 377 433 438 28 9 70 21 95
26 62 13 244 4 309 -15z"/>
</g>
</svg>
